<svg width="200" height="40" viewBox="0 0 200 40" fill="none" xmlns="http://www.w3.org/2000/svg">
<rect x="0.5" y="0.5" width="199" height="39" fill="#FFE69C" stroke="#8C68CD"/>
<path d="M140 17L138 27" stroke="#2C4763"/>
<path d="M48 17L38 21.4444L48 27" stroke="#2C4763"/>
<path d="M144 17L154 21.4444L144 27" stroke="#2C4763"/>
<path d="M54.48 25V24.364H55.392V18.88H54.48V18.244H56.772L58.98 22.984L61.08 18.244H63.408V18.88H62.496V24.364H63.408V25H60.684V24.364H61.56V19.048L59.016 24.652H58.704L56.124 19.048V24.364H57V25H54.48ZM65.9786 25.132C65.4906 25.132 65.0986 24.996 64.8026 24.724C64.5066 24.452 64.3586 24.12 64.3586 23.728C64.3586 23.368 64.4426 23.08 64.6106 22.864C64.7866 22.648 65.0186 22.492 65.3066 22.396C65.5946 22.3 65.9106 22.252 66.2546 22.252C66.5266 22.252 66.8026 22.276 67.0826 22.324C67.3706 22.364 67.6506 22.42 67.9226 22.492L67.5626 22.552V21.916C67.5626 21.54 67.4626 21.264 67.2626 21.088C67.0626 20.912 66.7906 20.824 66.4466 20.824C66.2226 20.824 65.9586 20.864 65.6546 20.944C65.3586 21.016 65.0826 21.12 64.8266 21.256L64.5626 20.68C64.8426 20.504 65.1586 20.376 65.5106 20.296C65.8626 20.208 66.1786 20.164 66.4586 20.164C66.8746 20.164 67.2306 20.232 67.5266 20.368C67.8226 20.504 68.0466 20.7 68.1986 20.956C68.3586 21.204 68.4386 21.496 68.4386 21.832V24.364H69.1826V25H67.6586L67.5866 24.328H67.9226C67.6106 24.6 67.3066 24.804 67.0106 24.94C66.7146 25.068 66.3706 25.132 65.9786 25.132ZM66.1106 24.52C66.4066 24.52 66.7026 24.456 66.9986 24.328C67.2946 24.2 67.6026 24.004 67.9226 23.74L67.5626 24.172V22.78L67.8386 22.996C67.6306 22.932 67.3946 22.88 67.1306 22.84C66.8666 22.8 66.5946 22.78 66.3146 22.78C66.0346 22.78 65.7786 22.844 65.5466 22.972C65.3146 23.092 65.1986 23.328 65.1986 23.68C65.1986 23.92 65.2786 24.12 65.4386 24.28C65.5986 24.44 65.8226 24.52 66.1106 24.52ZM72.1113 25.132C71.6793 25.132 71.2793 25.036 70.9113 24.844C70.5513 24.644 70.2593 24.356 70.0353 23.98C69.8113 23.604 69.6993 23.156 69.6993 22.636C69.6993 22.1 69.8033 21.652 70.0113 21.292C70.2273 20.924 70.5113 20.644 70.8633 20.452C71.2153 20.26 71.5993 20.164 72.0153 20.164C72.3513 20.164 72.6833 20.228 73.0113 20.356C73.3473 20.476 73.6433 20.648 73.8993 20.872L73.6113 20.98V18.748H72.7713V18.124H74.4993V24.364H75.2433V25H73.6113V24.376L73.8873 24.424C73.6553 24.648 73.3913 24.824 73.0953 24.952C72.8073 25.072 72.4793 25.132 72.1113 25.132ZM72.3033 24.46C72.6153 24.46 72.9033 24.4 73.1673 24.28C73.4393 24.16 73.6873 24 73.9113 23.8L73.6113 24.208V21.088L73.9113 21.52C73.6633 21.304 73.3833 21.136 73.0713 21.016C72.7673 20.896 72.4753 20.836 72.1953 20.836C71.8913 20.836 71.6193 20.908 71.3793 21.052C71.1473 21.196 70.9633 21.408 70.8273 21.688C70.6913 21.96 70.6233 22.3 70.6233 22.708C70.6233 23.084 70.6993 23.404 70.8513 23.668C71.0033 23.924 71.2033 24.12 71.4513 24.256C71.7073 24.392 71.9913 24.46 72.3033 24.46ZM78.2636 25.132C77.8316 25.132 77.4316 25.036 77.0636 24.844C76.7036 24.644 76.4116 24.356 76.1876 23.98C75.9636 23.604 75.8516 23.156 75.8516 22.636C75.8516 22.1 75.9556 21.652 76.1636 21.292C76.3796 20.924 76.6636 20.644 77.0156 20.452C77.3676 20.26 77.7516 20.164 78.1676 20.164C78.5036 20.164 78.8356 20.228 79.1636 20.356C79.4996 20.476 79.7956 20.648 80.0516 20.872L79.7636 20.98V18.748H78.9236V18.124H80.6516V24.364H81.3956V25H79.7636V24.376L80.0396 24.424C79.8076 24.648 79.5436 24.824 79.2476 24.952C78.9596 25.072 78.6316 25.132 78.2636 25.132ZM78.4556 24.46C78.7676 24.46 79.0556 24.4 79.3196 24.28C79.5916 24.16 79.8396 24 80.0636 23.8L79.7636 24.208V21.088L80.0636 21.52C79.8156 21.304 79.5356 21.136 79.2236 21.016C78.9196 20.896 78.6276 20.836 78.3476 20.836C78.0436 20.836 77.7716 20.908 77.5316 21.052C77.2996 21.196 77.1156 21.408 76.9796 21.688C76.8436 21.96 76.7756 22.3 76.7756 22.708C76.7756 23.084 76.8516 23.404 77.0036 23.668C77.1556 23.924 77.3556 24.12 77.6036 24.256C77.8596 24.392 78.1436 24.46 78.4556 24.46ZM81.932 25V24.364H82.844V20.92H81.944V20.284H83.72V24.364H84.572V25H81.932ZM83.168 19.252C82.992 19.252 82.84 19.196 82.712 19.084C82.584 18.964 82.52 18.816 82.52 18.64C82.52 18.464 82.584 18.32 82.712 18.208C82.84 18.088 82.992 18.028 83.168 18.028C83.352 18.028 83.504 18.088 83.624 18.208C83.752 18.32 83.816 18.464 83.816 18.64C83.816 18.816 83.752 18.964 83.624 19.084C83.504 19.196 83.352 19.252 83.168 19.252ZM87.8312 25.144C87.3352 25.144 86.8832 25.04 86.4752 24.832C86.0752 24.624 85.7552 24.332 85.5152 23.956C85.2832 23.58 85.1672 23.144 85.1672 22.648C85.1672 22.136 85.2792 21.696 85.5032 21.328C85.7272 20.952 86.0272 20.664 86.4032 20.464C86.7792 20.256 87.1992 20.152 87.6632 20.152C88.1432 20.152 88.5552 20.252 88.8992 20.452C89.2512 20.652 89.5192 20.936 89.7032 21.304C89.8872 21.672 89.9792 22.104 89.9792 22.6V22.828H85.9472L85.9592 22.276H89.1032C89.1032 21.964 89.0392 21.7 88.9112 21.484C88.7912 21.26 88.6232 21.092 88.4072 20.98C88.1912 20.86 87.9432 20.8 87.6632 20.8C87.3672 20.8 87.0992 20.872 86.8592 21.016C86.6192 21.152 86.4272 21.352 86.2832 21.616C86.1472 21.872 86.0792 22.184 86.0792 22.552C86.0792 22.944 86.1512 23.284 86.2952 23.572C86.4392 23.852 86.6392 24.072 86.8952 24.232C87.1592 24.384 87.4592 24.46 87.7952 24.46C88.1552 24.46 88.4872 24.388 88.7912 24.244C89.0952 24.1 89.3592 23.92 89.5832 23.704L89.8952 24.244C89.6792 24.492 89.3992 24.704 89.0552 24.88C88.7112 25.056 88.3032 25.144 87.8312 25.144ZM97.5227 25L95.0987 18.88H94.2467V18.244H96.9947V18.88H96.1067L98.0147 23.932L99.8987 18.88H99.0347V18.244H101.603V18.88H100.775L98.3747 25H97.5227ZM103.901 25.132C103.413 25.132 103.021 24.996 102.725 24.724C102.429 24.452 102.281 24.12 102.281 23.728C102.281 23.368 102.365 23.08 102.533 22.864C102.709 22.648 102.941 22.492 103.229 22.396C103.517 22.3 103.833 22.252 104.177 22.252C104.449 22.252 104.725 22.276 105.005 22.324C105.293 22.364 105.573 22.42 105.845 22.492L105.485 22.552V21.916C105.485 21.54 105.385 21.264 105.185 21.088C104.985 20.912 104.713 20.824 104.369 20.824C104.145 20.824 103.881 20.864 103.576 20.944C103.281 21.016 103.005 21.12 102.749 21.256L102.485 20.68C102.765 20.504 103.081 20.376 103.433 20.296C103.785 20.208 104.101 20.164 104.381 20.164C104.797 20.164 105.153 20.232 105.449 20.368C105.745 20.504 105.969 20.7 106.121 20.956C106.281 21.204 106.361 21.496 106.361 21.832V24.364H107.105V25H105.581L105.509 24.328H105.845C105.533 24.6 105.229 24.804 104.933 24.94C104.637 25.068 104.293 25.132 103.901 25.132ZM104.033 24.52C104.329 24.52 104.625 24.456 104.921 24.328C105.217 24.2 105.525 24.004 105.845 23.74L105.485 24.172V22.78L105.761 22.996C105.553 22.932 105.317 22.88 105.053 22.84C104.789 22.8 104.517 22.78 104.237 22.78C103.957 22.78 103.701 22.844 103.469 22.972C103.237 23.092 103.121 23.328 103.121 23.68C103.121 23.92 103.201 24.12 103.361 24.28C103.521 24.44 103.745 24.52 104.033 24.52ZM110.213 25.12C109.965 25.12 109.725 25.088 109.493 25.024C109.269 24.96 109.073 24.872 108.905 24.76C108.737 24.648 108.609 24.516 108.521 24.364L108.701 24.472V25H108.005V23.368H108.629L108.701 24.148L108.533 23.584C108.621 23.88 108.817 24.108 109.121 24.268C109.433 24.428 109.757 24.508 110.093 24.508C110.397 24.508 110.649 24.448 110.849 24.328C111.057 24.208 111.161 24.04 111.161 23.824C111.161 23.568 111.073 23.392 110.897 23.296C110.729 23.192 110.457 23.1 110.081 23.02L109.421 22.876C108.981 22.764 108.633 22.616 108.377 22.432C108.121 22.24 107.993 21.924 107.993 21.484C107.993 21.06 108.157 20.736 108.485 20.512C108.821 20.28 109.237 20.164 109.733 20.164C109.925 20.164 110.125 20.192 110.333 20.248C110.549 20.296 110.745 20.372 110.921 20.476C111.097 20.58 111.221 20.708 111.293 20.86L111.113 20.8V20.26H111.821V21.88H111.197L111.041 20.74L111.245 21.532C111.213 21.388 111.121 21.264 110.969 21.16C110.825 21.048 110.653 20.96 110.453 20.896C110.261 20.832 110.069 20.8 109.877 20.8C109.621 20.8 109.389 20.852 109.181 20.956C108.981 21.06 108.881 21.228 108.881 21.46C108.881 21.636 108.949 21.772 109.085 21.868C109.229 21.964 109.461 22.052 109.781 22.132L110.393 22.264C110.697 22.336 110.969 22.424 111.209 22.528C111.457 22.624 111.653 22.768 111.797 22.96C111.941 23.144 112.013 23.408 112.013 23.752C112.013 24.064 111.925 24.324 111.749 24.532C111.581 24.732 111.357 24.88 111.077 24.976C110.805 25.072 110.517 25.12 110.213 25.12ZM115.921 26.932V26.26H116.845V24.292L117.121 24.304C116.873 24.568 116.573 24.772 116.221 24.916C115.877 25.06 115.541 25.132 115.213 25.132C114.781 25.132 114.381 25.036 114.013 24.844C113.653 24.644 113.361 24.356 113.137 23.98C112.913 23.604 112.801 23.156 112.801 22.636C112.801 22.1 112.905 21.652 113.113 21.292C113.329 20.924 113.613 20.644 113.965 20.452C114.317 20.26 114.701 20.164 115.117 20.164C115.477 20.164 115.837 20.236 116.197 20.38C116.557 20.524 116.861 20.724 117.109 20.98L116.845 20.884L116.857 20.284H118.561V20.92H117.733V26.26H118.573V26.932H115.921ZM115.393 24.46C115.689 24.46 115.989 24.392 116.293 24.256C116.605 24.12 116.885 23.936 117.133 23.704L116.845 24.1V21.172L117.145 21.616C116.873 21.368 116.569 21.176 116.233 21.04C115.905 20.904 115.589 20.836 115.285 20.836C114.989 20.836 114.721 20.908 114.481 21.052C114.241 21.196 114.053 21.408 113.917 21.688C113.781 21.96 113.713 22.3 113.713 22.708C113.713 23.084 113.789 23.404 113.941 23.668C114.093 23.924 114.293 24.12 114.541 24.256C114.797 24.392 115.081 24.46 115.393 24.46ZM121.324 25.12C120.956 25.12 120.656 25.048 120.424 24.904C120.192 24.76 120.02 24.568 119.908 24.328C119.804 24.088 119.752 23.824 119.752 23.536V20.92H118.96V20.284H120.64V23.44C120.64 23.736 120.712 23.972 120.856 24.148C121 24.324 121.224 24.412 121.528 24.412C121.88 24.412 122.204 24.328 122.5 24.16C122.796 23.992 123.076 23.76 123.34 23.464L123.064 23.932V20.92H122.212V20.284H123.94V24.364H124.816V25H123.088L123.052 24.22L123.364 24.16C123.052 24.456 122.724 24.692 122.38 24.868C122.044 25.036 121.692 25.12 121.324 25.12ZM127.909 25.144C127.413 25.144 126.961 25.04 126.553 24.832C126.153 24.624 125.833 24.332 125.593 23.956C125.361 23.58 125.245 23.144 125.245 22.648C125.245 22.136 125.357 21.696 125.581 21.328C125.805 20.952 126.105 20.664 126.481 20.464C126.857 20.256 127.277 20.152 127.741 20.152C128.221 20.152 128.633 20.252 128.977 20.452C129.329 20.652 129.597 20.936 129.781 21.304C129.965 21.672 130.057 22.104 130.057 22.6V22.828H126.025L126.037 22.276H129.181C129.181 21.964 129.117 21.7 128.989 21.484C128.869 21.26 128.701 21.092 128.485 20.98C128.269 20.86 128.021 20.8 127.741 20.8C127.445 20.8 127.177 20.872 126.937 21.016C126.697 21.152 126.505 21.352 126.361 21.616C126.225 21.872 126.157 22.184 126.157 22.552C126.157 22.944 126.229 23.284 126.373 23.572C126.517 23.852 126.717 24.072 126.973 24.232C127.237 24.384 127.537 24.46 127.873 24.46C128.233 24.46 128.565 24.388 128.869 24.244C129.173 24.1 129.437 23.92 129.661 23.704L129.973 24.244C129.757 24.492 129.477 24.704 129.133 24.88C128.789 25.056 128.381 25.144 127.909 25.144ZM131.089 25V24.376L134.125 20.896H131.821V21.868H131.149V20.284H135.157V20.944L132.121 24.4H134.533V23.32H135.229V25H131.089Z" fill="#8C68CD"/>
</svg>
